<?xml version="1.0"?>
<svg width="30" height="30" xmlns="http://www.w3.org/2000/svg" xmlns:svg="http://www.w3.org/2000/svg">
 <g class="layer">
  <title>Layer 1</title>
  <path d="m14.99,6.64c1.62,0 2.91,0.38 3.85,1.13c0.95,0.74 1.42,1.74 1.42,2.99c0,1.76 -1.05,3.15 -3.16,4.19c1.34,0.68 2.29,1.38 2.86,2.12c0.57,0.75 0.85,1.57 0.85,2.49c0,1.41 -0.52,2.55 -1.56,3.4c-1.04,0.85 -2.44,1.27 -4.21,1.27c-1.86,0 -3.31,-0.39 -4.33,-1.19c-1.02,-0.8 -1.53,-1.93 -1.53,-3.39c0,-0.95 0.26,-1.81 0.79,-2.56c0.54,-0.77 1.42,-1.45 2.64,-2.04c-1.05,-0.63 -1.79,-1.29 -2.24,-1.98c-0.44,-0.7 -0.67,-1.48 -0.67,-2.35c0,-1.24 0.49,-2.23 1.47,-2.96c0.97,-0.74 2.25,-1.12 3.82,-1.12zm-3.18,12.92c0,0.81 0.29,1.44 0.86,1.9c0.57,0.44 1.34,0.67 2.32,0.67c1.01,0 1.79,-0.24 2.34,-0.7c0.56,-0.47 0.85,-1.1 0.85,-1.89c0,-0.64 -0.26,-1.22 -0.78,-1.74c-0.51,-0.52 -1.29,-1.01 -2.34,-1.45l-0.34,-0.15c-1.03,0.45 -1.77,0.95 -2.23,1.5c-0.45,0.53 -0.68,1.16 -0.68,1.86zm3.15,-10.79c-0.78,0 -1.41,0.19 -1.88,0.58c-0.48,0.38 -0.72,0.91 -0.72,1.57c0,0.41 0.09,0.77 0.26,1.09c0.17,0.32 0.42,0.62 0.75,0.88c0.33,0.26 0.88,0.57 1.67,0.94c0.93,-0.42 1.59,-0.85 1.98,-1.3c0.39,-0.46 0.58,-1 0.58,-1.61c0,-0.66 -0.24,-1.19 -0.72,-1.57c-0.48,-0.39 -1.12,-0.58 -1.92,-0.58z" fill="#ffffff" id="svg_1"/>
 </g>
</svg>