<svg width="30" height="30" viewBox="0 0 30 30" fill="none" xmlns="http://www.w3.org/2000/svg">
<path d="M16.9453 9.02344C15.3359 9.02344 14.0703 9.59375 13.1484 10.7344C12.2266 11.875 11.7656 13.4492 11.7656 15.457C11.7656 17.5586 12.207 19.1484 13.0898 20.2266C13.9805 21.3047 15.2656 21.8438 16.9453 21.8438C17.6719 21.8438 18.375 21.7734 19.0547 21.6328C19.7344 21.4844 20.4414 21.2969 21.1758 21.0703V23.4727C19.832 23.9805 18.3086 24.2344 16.6055 24.2344C14.0977 24.2344 12.1719 23.4766 10.8281 21.9609C9.48438 20.4375 8.8125 18.2617 8.8125 15.4336C8.8125 13.6523 9.13672 12.0938 9.78516 10.7578C10.4414 9.42188 11.3867 8.39844 12.6211 7.6875C13.8555 6.97656 15.3047 6.62109 16.9688 6.62109C18.7188 6.62109 20.3359 6.98828 21.8203 7.72266L20.8125 10.0547C20.2344 9.78125 19.6211 9.54297 18.9727 9.33984C18.332 9.12891 17.6562 9.02344 16.9453 9.02344Z" fill="white"/>
</svg>
