<?xml version="1.0"?>
<svg width="30" height="30" xmlns="http://www.w3.org/2000/svg" xmlns:svg="http://www.w3.org/2000/svg">
 <g class="layer">
  <title>Layer 1</title>
  <path d="m15.01,13.3c1.73,0 3.1,0.46 4.1,1.37c1.01,0.92 1.52,2.16 1.52,3.74c0,1.83 -0.58,3.26 -1.73,4.29c-1.14,1.02 -2.76,1.53 -4.87,1.53c-1.92,0 -3.42,-0.3 -4.51,-0.92l0,-2.5c0.63,0.36 1.36,0.64 2.18,0.83c0.82,0.2 1.58,0.3 2.28,0.3c1.24,0 2.19,-0.28 2.84,-0.83c0.64,-0.56 0.97,-1.37 0.97,-2.44c0,-2.05 -1.31,-3.07 -3.91,-3.07c-0.37,0 -0.83,0.04 -1.36,0.11c-0.54,0.08 -1.02,0.16 -1.42,0.25l-1.23,-0.73l0.65,-8.36l8.91,0l0,2.45l-6.48,0l-0.39,4.24c0.28,-0.05 0.61,-0.1 1,-0.17c0.4,-0.06 0.88,-0.09 1.45,-0.09z" fill="#ffffff" id="svg_1"/>
 </g>
</svg>