<?xml version="1.0"?>
<svg width="30" height="30" xmlns="http://www.w3.org/2000/svg" xmlns:svg="http://www.w3.org/2000/svg">
 <g class="layer">
  <title>Layer 1</title>
  <path d="m20.79,14.18c0,3.37 -0.68,5.89 -2.04,7.56c-1.36,1.66 -3.41,2.49 -6.14,2.49c-1.04,0 -1.79,-0.06 -2.24,-0.18l0,-2.31c0.7,0.19 1.4,0.29 2.1,0.29c1.86,0 3.24,-0.5 4.16,-1.5c0.91,-1 1.41,-2.57 1.5,-4.71l-0.14,0c-0.46,0.7 -1.02,1.21 -1.68,1.52c-0.65,0.32 -1.41,0.47 -2.28,0.47c-1.52,0 -2.71,-0.47 -3.58,-1.42c-0.86,-0.94 -1.3,-2.24 -1.3,-3.89c0,-1.79 0.5,-3.21 1.5,-4.26c1.01,-1.06 2.38,-1.6 4.12,-1.6c1.21,0 2.28,0.3 3.18,0.9c0.91,0.59 1.61,1.45 2.1,2.59c0.49,1.12 0.74,2.47 0.74,4.05zm-5.98,-5.25c-0.95,0 -1.68,0.31 -2.19,0.94c-0.51,0.61 -0.76,1.49 -0.76,2.61c0,0.98 0.23,1.75 0.7,2.31c0.48,0.55 1.2,0.83 2.16,0.83c0.93,0 1.71,-0.28 2.34,-0.83c0.64,-0.56 0.95,-1.2 0.95,-1.95c0,-0.69 -0.13,-1.34 -0.41,-1.94c-0.26,-0.61 -0.64,-1.09 -1.12,-1.44c-0.49,-0.35 -1.04,-0.53 -1.67,-0.53z" fill="#ffffff" id="svg_1"/>
 </g>
</svg>