<?xml version="1.0"?>
<svg width="30" height="30" xmlns="http://www.w3.org/2000/svg" xmlns:svg="http://www.w3.org/2000/svg">
 <g class="layer">
  <title>Layer 1</title>
  <path d="m9.39,16.7c0,-6.7 2.73,-10.06 8.19,-10.06c0.86,0 1.58,0.07 2.18,0.2l0,2.3c-0.6,-0.17 -1.28,-0.26 -2.07,-0.26c-1.83,0 -3.21,0.5 -4.13,1.48c-0.92,0.98 -1.42,2.56 -1.5,4.73l0.14,0c0.37,-0.63 0.88,-1.12 1.55,-1.46c0.66,-0.35 1.44,-0.53 2.34,-0.53c1.55,0 2.76,0.48 3.63,1.43c0.87,0.95 1.3,2.25 1.3,3.88c0,1.8 -0.5,3.22 -1.51,4.27c-1,1.03 -2.37,1.55 -4.1,1.55c-1.23,0 -2.29,-0.29 -3.2,-0.87c-0.91,-0.6 -1.61,-1.46 -2.1,-2.58c-0.48,-1.14 -0.72,-2.49 -0.72,-4.08zm5.97,5.26c0.95,0 1.67,-0.3 2.18,-0.91c0.52,-0.61 0.78,-1.48 0.78,-2.62c0,-0.98 -0.25,-1.75 -0.73,-2.32c-0.48,-0.56 -1.2,-0.84 -2.16,-0.84c-0.59,0 -1.14,0.13 -1.64,0.39c-0.5,0.25 -0.89,0.59 -1.18,1.04c-0.29,0.44 -0.43,0.89 -0.43,1.35c0,1.1 0.29,2.03 0.89,2.79c0.6,0.75 1.36,1.12 2.29,1.12z" fill="#ffffff" id="svg_1"/>
 </g>
</svg>