<?xml version="1.0"?>
<svg width="30" height="30" xmlns="http://www.w3.org/2000/svg" xmlns:svg="http://www.w3.org/2000/svg">
 <g class="layer">
  <title>Layer 1</title>
  <path d="m20.17,10.8c0,1.09 -0.32,2 -0.95,2.72c-0.63,0.72 -1.52,1.21 -2.67,1.46l0,0.09c1.37,0.17 2.4,0.6 3.09,1.29c0.69,0.68 1.03,1.59 1.03,2.72c0,1.65 -0.58,2.92 -1.74,3.82c-1.17,0.89 -2.82,1.33 -4.97,1.33c-1.9,0 -3.5,-0.3 -4.81,-0.92l0,-2.45c0.73,0.36 1.5,0.64 2.31,0.83c0.81,0.2 1.59,0.29 2.34,0.29c1.33,0 2.33,-0.24 2.98,-0.73c0.66,-0.5 0.99,-1.26 0.99,-2.29c0,-0.91 -0.37,-1.58 -1.09,-2.01c-0.73,-0.43 -1.87,-0.65 -3.43,-0.65l-1.48,0l0,-2.24l1.51,0c2.73,0 4.1,-0.94 4.1,-2.83c0,-0.74 -0.24,-1.3 -0.72,-1.7c-0.47,-0.4 -1.18,-0.6 -2.11,-0.6c-0.64,0 -1.27,0.09 -1.87,0.28c-0.6,0.18 -1.31,0.54 -2.13,1.07l-1.35,-1.92c1.57,-1.16 3.39,-1.74 5.47,-1.74c1.73,0 3.08,0.37 4.04,1.11c0.97,0.75 1.46,1.77 1.46,3.07z" fill="#ffffff" id="svg_1"/>
 </g>
</svg>