<?xml version="1.0"?>
<svg width="30.000000000000004" height="30.000000000000004" xmlns="http://www.w3.org/2000/svg" xmlns:svg="http://www.w3.org/2000/svg">
 <g class="layer">
  <title>Layer 1</title>
  <path d="m20.81,24l-11.61,0l0,-2.09l4.42,-4.44c1.3,-1.33 2.17,-2.28 2.59,-2.83c0.43,-0.57 0.74,-1.09 0.93,-1.59c0.2,-0.49 0.3,-1.01 0.3,-1.58c0,-0.77 -0.24,-1.38 -0.71,-1.83c-0.46,-0.44 -1.1,-0.66 -1.92,-0.66c-0.65,0 -1.29,0.12 -1.91,0.36c-0.61,0.24 -1.31,0.68 -2.12,1.31l-1.49,-1.81c0.96,-0.81 1.88,-1.38 2.78,-1.71c0.9,-0.34 1.86,-0.51 2.87,-0.51c1.6,0 2.87,0.42 3.83,1.26c0.96,0.82 1.44,1.94 1.44,3.35c0,0.77 -0.14,1.5 -0.42,2.2c-0.27,0.7 -0.7,1.41 -1.27,2.16c-0.57,0.73 -1.53,1.73 -2.86,2.98l-2.98,2.89l0,0.11l8.13,0l0,2.43z" fill="#ffffff" id="svg_1"/>
 </g>
</svg>