<?xml version="1.0"?>
<svg width="30" height="30" xmlns="http://www.w3.org/2000/svg" xmlns:svg="http://www.w3.org/2000/svg">
 <g class="layer">
  <title>Layer 1</title>
  <path d="m20.81,15.43c0,2.98 -0.48,5.19 -1.44,6.64c-0.95,1.44 -2.41,2.16 -4.38,2.16c-1.91,0 -3.35,-0.74 -4.34,-2.23c-0.98,-1.5 -1.47,-3.68 -1.47,-6.57c0,-3.02 0.47,-5.25 1.43,-6.68c0.96,-1.43 2.42,-2.15 4.38,-2.15c1.91,0 3.36,0.75 4.35,2.25c0.98,1.5 1.47,3.69 1.47,6.58zm-8.85,0c0,2.34 0.24,4.01 0.72,5.01c0.48,1 1.25,1.5 2.31,1.5c1.05,0 1.82,-0.51 2.31,-1.53c0.49,-1.01 0.74,-2.67 0.74,-4.98c0,-2.29 -0.25,-3.95 -0.74,-4.98c-0.49,-1.03 -1.26,-1.54 -2.31,-1.54c-1.06,0 -1.83,0.5 -2.31,1.51c-0.48,1.01 -0.72,2.68 -0.72,5.01z" fill="#ffffff" id="svg_1"/>
 </g>
</svg>